<?xml version="1.0" encoding="utf-8"?>
<!-- Generator: Adobe Illustrator 21.1.0, SVG Export Plug-In . SVG Version: 6.00 Build 0)  -->
<svg version="1.1" id="icon-keyboard" xmlns="http://www.w3.org/2000/svg" xmlns:xlink="http://www.w3.org/1999/xlink" x="0px"
	 y="0px" viewBox="0 0 186 60" style="enable-background:new 0 0 186 60;" xml:space="preserve">
<style type="text/css">
	.st0{opacity:0.6;fill:#FFFFFF;stroke:#FFFFFF;stroke-width:2;stroke-miterlimit:10;}
	.st1{stroke:#FFFFFF;stroke-width:2;stroke-miterlimit:10;}
	.st2{fill:#FFFFFF;}
</style>
<path class="st0" d="M119,59H67c-1.1,0-2-0.9-2-2V36c0-1.1,0.9-2,2-2h52c1.1,0,2,0.9,2,2v21C121,58.1,120.1,59,119,59z"/>
<path class="st0" d="M119,26H67c-1.1,0-2-0.9-2-2V3c0-1.1,0.9-2,2-2h52c1.1,0,2,0.9,2,2v21C121,25.1,120.1,26,119,26z"/>
<path class="st1" d="M55,59H3c-1.1,0-2-0.9-2-2V36c0-1.1,0.9-2,2-2h52c1.1,0,2,0.9,2,2v21C57,58.1,56.1,59,55,59z"/>
<path class="st1" d="M183,59h-52c-1.1,0-2-0.9-2-2V36c0-1.1,0.9-2,2-2h52c1.1,0,2,0.9,2,2v21C185,58.1,184.1,59,183,59z"/>
<path class="st2" d="M92.5,50l-3.2-7.3c-0.1-0.3,0.1-0.7,0.5-0.7h6.5c0.4,0,0.6,0.4,0.5,0.7L93.5,50C93.3,50.4,92.7,50.4,92.5,50z"
	/>
<path class="st2" d="M92.5,10l-3.2,7.3c-0.1,0.3,0.1,0.7,0.5,0.7h6.5c0.4,0,0.6-0.4,0.5-0.7L93.5,10C93.3,9.6,92.7,9.6,92.5,10z"/>
<path class="st2" d="M25,46l7.3-3.2c0.3-0.1,0.7,0.1,0.7,0.5v6.5c0,0.4-0.4,0.6-0.7,0.5L25,47C24.6,46.8,24.6,46.2,25,46z"/>
<path class="st2" d="M161,46l-7.3-3.2c-0.3-0.1-0.7,0.1-0.7,0.5v6.5c0,0.4,0.4,0.6,0.7,0.5L161,47C161.4,46.8,161.4,46.2,161,46z"/>
</svg>
