<?xml version="1.0" encoding="utf-8"?>
<!-- Generator: Adobe Illustrator 21.1.0, SVG Export Plug-In . SVG Version: 6.00 Build 0)  -->
<svg version="1.1" id="Layer_1" xmlns="http://www.w3.org/2000/svg" xmlns:xlink="http://www.w3.org/1999/xlink" x="0px" y="0px"
	 viewBox="0 0 441 610" style="enable-background:new 0 0 441 610;" xml:space="preserve">
<style type="text/css">
	.st0{fill:#FFFFFF;}
</style>
<g id="Rounded">
	<g id="ui_x5F_spec_x5F_header_copy_6">
	</g>
	<path class="st0" d="M397.7,19.8H43.3c-27,0-29,1.9-29,29v512.3c0,27,1.9,29,29,29h354.3c27,0,29-1.9,29-29V48.8
		C426.7,21.8,424.7,19.8,397.7,19.8z M220.5,570.5c-16.3,0-29.4-13.1-29.4-29.4c0-16.3,13.1-29.4,29.4-29.4s29.4,13.1,29.4,29.4
		C249.9,557.4,236.8,570.5,220.5,570.5z M387.5,492.1H53.5V78.6h333.9V492.1z"/>
</g>
<g id="Bounding_Boxes">
	<g id="ui_x5F_spec_x5F_header_copy_2">
	</g>
</g>
<g id="Rounded_1_">
	<g id="ui_x5F_spec_x5F_header_copy_6_1_">
	</g>
	<path class="st0" d="M255,202.9l-25.6-25.6c-7.4-7.4-20.4-2.2-20.4,8.5v7.9c-47.3,5.9-84,46.2-84,95.2c0,43.7,29.2,80.5,69.2,92.2
		c7.4,2.2,14.8-3.8,14.8-11.5v-0.4c0-5.2-3.2-9.8-8.2-11.3c-30-8.6-51.8-36.2-51.8-69c0-35.6,25.9-65.2,60-70.9v18.4
		c0,10.7,12.8,16,20.4,8.5l25.6-25C259.8,215.4,259.8,207.7,255,202.9z M313,262.1c-1.9-6.6-4.6-13-7.9-19.1
		c-3.7-6.8-13.2-7.9-18.7-2.4l-0.1,0.1c-3.7,3.7-4.6,9.4-2,13.9c2.4,4.4,4.3,9.1,5.8,13.9c1.4,5,6.1,8.4,11.3,8.4h0.2
		C309.3,277,315.3,269.5,313,262.1z M233,369.1v0.2c0,7.8,7.4,13.7,14.9,11.5c6.6-1.9,13-4.6,19.1-7.9c6.8-3.7,7.9-13.2,2.4-18.7
		l-0.2-0.2c-3.7-3.7-9.4-4.6-13.9-2c-4.4,2.5-9.1,4.4-13.9,5.9C236.4,359.3,233,364,233,369.1z M286.3,337.3L286.3,337.3
		c5.5,5.5,15,4.4,18.7-2.4c3.4-6.1,6-12.5,8-19.1c2.2-7.4-3.7-14.9-11.5-14.9h-0.2c-5.3,0-9.8,3.4-11.3,8.4c-1.4,4.8-3.4,9.5-5.8,14
		C281.7,328,282.7,333.7,286.3,337.3z"/>
</g>
</svg>
