<?xml version="1.0" encoding="utf-8"?>
<!-- Generator: Adobe Illustrator 21.1.0, SVG Export Plug-In . SVG Version: 6.00 Build 0)  -->
<svg version="1.1" id="Layer_1" xmlns="http://www.w3.org/2000/svg" xmlns:xlink="http://www.w3.org/1999/xlink" x="0px" y="0px"
	 viewBox="0 0 870 647" style="enable-background:new 0 0 870 647;" xml:space="preserve">
<style type="text/css">
	.st0{fill:#2B2B2B;}
	.st1{fill:#C9C9C9;}
</style>
<path class="st0" d="M850.1,547.5H20.6c-6.6,0-12-5.4-12-12v-426c0-6.6,5.4-12,12-12h829.5c6.6,0,12,5.4,12,12v426
	C862.1,542.1,856.7,547.5,850.1,547.5z"/>
<path class="st1" d="M862.1,646.5V588c0-6.6-5.4-12-12-12H20.6c-6.6,0-12,5.4-12,12v58.5H862.1z"/>
<path class="st1" d="M8.6-2v58.5c0,6.6,5.4,12,12,12h829.5c6.6,0,12-5.4,12-12V-2H8.6z"/>
<g>
	<path d="M224.1,20.2v2.9h-8.3V46h-3.5V23.1h-8.4v-2.9H224.1z"/>
	<path d="M236.1,46h-1.4c-0.3,0-0.6-0.1-0.8-0.2s-0.3-0.3-0.4-0.7l-0.4-1.9c-0.5,0.4-0.9,0.8-1.4,1.2c-0.5,0.3-0.9,0.6-1.4,0.9
		c-0.5,0.2-1,0.4-1.6,0.5s-1.2,0.2-1.9,0.2s-1.4-0.1-2-0.3s-1.2-0.5-1.6-0.9s-0.8-0.9-1.1-1.5s-0.4-1.3-0.4-2.2
		c0-0.7,0.2-1.4,0.6-2.1c0.4-0.7,1-1.3,1.9-1.8s2-0.9,3.5-1.3c1.4-0.3,3.2-0.5,5.2-0.5v-1.3c0-1.3-0.3-2.3-0.9-2.9
		c-0.6-0.7-1.5-1-2.7-1c-0.8,0-1.4,0.1-2,0.3c-0.5,0.2-1,0.4-1.4,0.6c-0.4,0.2-0.7,0.4-1,0.6c-0.3,0.2-0.6,0.3-0.8,0.3
		s-0.4-0.1-0.6-0.2s-0.3-0.2-0.4-0.4l-0.6-0.9c1-1,2.1-1.7,3.3-2.2s2.5-0.7,3.9-0.7c1,0,1.9,0.2,2.7,0.5s1.5,0.8,2,1.4
		s0.9,1.3,1.2,2.1s0.4,1.8,0.4,2.8V46H236.1z M227.8,43.8c0.6,0,1.1-0.1,1.5-0.2c0.5-0.1,0.9-0.3,1.3-0.5c0.4-0.2,0.8-0.5,1.2-0.8
		s0.7-0.6,1.1-1v-3.8c-1.5,0-2.7,0.1-3.8,0.3s-1.9,0.4-2.5,0.7s-1.1,0.7-1.4,1.1c-0.3,0.4-0.4,0.9-0.4,1.4s0.1,0.9,0.2,1.2
		c0.2,0.4,0.4,0.6,0.6,0.9c0.3,0.2,0.6,0.4,0.9,0.5C227,43.7,227.4,43.8,227.8,43.8z"/>
	<path d="M241,52.2V27.8h1.9c0.5,0,0.7,0.3,0.9,0.8L244,31c0.8-1,1.7-1.8,2.7-2.3c1-0.6,2.2-0.9,3.5-0.9c1,0,2,0.2,2.8,0.6
		c0.9,0.4,1.6,1,2.2,1.7c0.6,0.8,1.1,1.7,1.4,2.8c0.3,1.1,0.5,2.4,0.5,3.9c0,1.3-0.2,2.5-0.5,3.6c-0.4,1.1-0.9,2.1-1.5,2.9
		c-0.7,0.8-1.5,1.5-2.5,1.9c-1,0.5-2.1,0.7-3.3,0.7c-1.1,0-2.1-0.2-2.9-0.6c-0.8-0.4-1.5-0.9-2.1-1.6V52H241V52.2z M249.1,30.3
		c-1,0-2,0.2-2.7,0.7c-0.8,0.5-1.5,1.1-2.2,2v8.4c0.6,0.8,1.2,1.3,1.9,1.6s1.5,0.5,2.3,0.5c1.7,0,3-0.6,3.9-1.7
		c0.9-1.2,1.4-2.8,1.4-5c0-1.1-0.1-2.1-0.3-2.9c-0.2-0.8-0.5-1.5-0.9-2s-0.9-0.9-1.5-1.1C250.5,30.5,249.8,30.3,249.1,30.3z"/>
	<path d="M273.3,46c-1.4,0-2.5-0.4-3.3-1.2s-1.2-2-1.2-3.5V30.1h-2.2c-0.2,0-0.4-0.1-0.5-0.2c-0.1-0.1-0.2-0.3-0.2-0.5v-1.3l3-0.4
		l0.7-5.6c0-0.2,0.1-0.3,0.2-0.4c0.1-0.1,0.3-0.2,0.5-0.2h1.6v6.2h5.2V30H272v11c0,0.8,0.2,1.3,0.6,1.7c0.4,0.4,0.9,0.6,1.4,0.6
		c0.3,0,0.6,0,0.9-0.1c0.2-0.1,0.5-0.2,0.6-0.3c0.2-0.1,0.3-0.2,0.5-0.3c0.1-0.1,0.2-0.1,0.3-0.1c0.2,0,0.3,0.1,0.4,0.3l0.9,1.5
		c-0.6,0.5-1.2,0.9-2,1.2C275,45.9,274.2,46,273.3,46z"/>
	<path d="M288.6,27.7c1.3,0,2.5,0.2,3.6,0.6s2,1,2.7,1.8c0.8,0.8,1.3,1.8,1.7,2.9c0.4,1.1,0.6,2.4,0.6,3.8c0,1.4-0.2,2.7-0.6,3.8
		c-0.4,1.1-1,2.1-1.7,2.9c-0.8,0.8-1.7,1.4-2.7,1.8c-1.1,0.4-2.3,0.6-3.6,0.6s-2.5-0.2-3.6-0.6c-1.1-0.4-2-1-2.7-1.8
		c-0.8-0.8-1.3-1.8-1.7-2.9c-0.4-1.1-0.6-2.4-0.6-3.8c0-1.4,0.2-2.6,0.6-3.8c0.4-1.1,1-2.1,1.7-2.9c0.8-0.8,1.7-1.4,2.7-1.8
		C286.1,28,287.3,27.7,288.6,27.7z M288.6,43.5c1.8,0,3.1-0.6,4-1.7c0.9-1.2,1.3-2.8,1.3-4.9c0-2.1-0.4-3.7-1.3-4.9
		c-0.9-1.2-2.2-1.8-4-1.8c-0.9,0-1.7,0.2-2.4,0.5s-1.2,0.7-1.7,1.3s-0.8,1.3-1,2.1s-0.3,1.8-0.3,2.8s0.1,2,0.3,2.8s0.6,1.5,1,2.1
		s1,1,1.7,1.3C286.9,43.4,287.7,43.5,288.6,43.5z"/>
	<path d="M314.3,27.7c0.8,0,1.5,0.1,2.2,0.3c0.7,0.2,1.3,0.4,1.9,0.8h4.9V30c0,0.4-0.3,0.6-0.8,0.7l-2.1,0.3
		c0.4,0.7,0.6,1.5,0.6,2.4c0,0.8-0.2,1.6-0.5,2.3s-0.8,1.3-1.4,1.7c-0.6,0.5-1.3,0.8-2.2,1.1c-0.8,0.3-1.7,0.4-2.7,0.4
		c-0.9,0-1.7-0.1-2.4-0.3c-0.4,0.2-0.7,0.5-0.9,0.8s-0.3,0.6-0.3,0.8c0,0.4,0.2,0.8,0.5,1s0.8,0.4,1.4,0.5c0.6,0.1,1.2,0.1,2,0.1
		c0.7,0,1.5,0,2.2,0s1.5,0.1,2.2,0.2c0.7,0.1,1.4,0.4,2,0.7s1,0.7,1.4,1.3c0.3,0.5,0.5,1.2,0.5,2.1c0,0.8-0.2,1.6-0.6,2.3
		c-0.4,0.7-1,1.4-1.7,2s-1.6,1-2.7,1.4c-1.1,0.3-2.2,0.5-3.6,0.5s-2.5-0.1-3.5-0.4c-1-0.3-1.8-0.6-2.5-1.1s-1.2-1-1.5-1.5
		s-0.5-1.2-0.5-1.8c0-0.9,0.3-1.7,0.9-2.3c0.6-0.6,1.4-1.1,2.3-1.5c-0.5-0.2-0.9-0.6-1.2-1s-0.5-0.9-0.5-1.6c0-0.3,0-0.5,0.1-0.8
		s0.2-0.6,0.4-0.8c0.2-0.3,0.4-0.5,0.7-0.8s0.6-0.5,1-0.7c-0.9-0.5-1.6-1.1-2.1-1.9c-0.5-0.8-0.8-1.7-0.8-2.7c0-0.8,0.2-1.6,0.5-2.3
		s0.8-1.3,1.4-1.7c0.6-0.5,1.3-0.8,2.2-1.1C312.4,27.9,313.3,27.7,314.3,27.7z M320,46.5c0-0.5-0.1-0.8-0.4-1.1
		c-0.3-0.3-0.6-0.5-1-0.7s-0.9-0.3-1.5-0.3c-0.6-0.1-1.2-0.1-1.8-0.1s-1.3,0-1.9,0c-0.6,0-1.3-0.1-1.9-0.2c-0.7,0.3-1.2,0.7-1.7,1.2
		c-0.4,0.5-0.6,1-0.6,1.7c0,0.4,0.1,0.8,0.3,1.1s0.5,0.7,1,0.9c0.4,0.3,1,0.5,1.6,0.6c0.7,0.1,1.4,0.2,2.3,0.2
		c0.9,0,1.6-0.1,2.3-0.2s1.3-0.4,1.7-0.7c0.5-0.3,0.8-0.6,1.1-1C319.9,47.5,320,47,320,46.5z M314.3,36.7c0.6,0,1.2-0.1,1.7-0.2
		s0.9-0.4,1.3-0.7c0.3-0.3,0.6-0.6,0.8-1.1c0.2-0.4,0.3-0.9,0.3-1.3c0-1-0.3-1.8-1-2.4c-0.7-0.6-1.7-0.9-3-0.9s-2.3,0.3-2.9,0.9
		c-0.7,0.6-1,1.4-1,2.4c0,0.5,0.1,0.9,0.3,1.3c0.2,0.4,0.4,0.8,0.8,1.1c0.3,0.3,0.8,0.5,1.2,0.7C313.1,36.6,313.7,36.7,314.3,36.7z"
		/>
	<path d="M334,27.7c1.3,0,2.5,0.2,3.6,0.6s2,1,2.7,1.8c0.8,0.8,1.3,1.8,1.7,2.9c0.4,1.1,0.6,2.4,0.6,3.8c0,1.4-0.2,2.7-0.6,3.8
		c-0.4,1.1-1,2.1-1.7,2.9c-0.8,0.8-1.7,1.4-2.7,1.8c-1.1,0.4-2.3,0.6-3.6,0.6s-2.5-0.2-3.6-0.6c-1.1-0.4-2-1-2.7-1.8
		c-0.8-0.8-1.3-1.8-1.7-2.9c-0.4-1.1-0.6-2.4-0.6-3.8c0-1.4,0.2-2.6,0.6-3.8c0.4-1.1,1-2.1,1.7-2.9c0.8-0.8,1.7-1.4,2.7-1.8
		C331.4,28,332.6,27.7,334,27.7z M334,43.5c1.8,0,3.1-0.6,4-1.7c0.9-1.2,1.3-2.8,1.3-4.9c0-2.1-0.4-3.7-1.3-4.9
		c-0.9-1.2-2.2-1.8-4-1.8c-0.9,0-1.7,0.2-2.4,0.5s-1.2,0.7-1.7,1.3s-0.8,1.3-1,2.1s-0.3,1.8-0.3,2.8s0.1,2,0.3,2.8s0.6,1.5,1,2.1
		s1,1,1.7,1.3C332.3,43.4,333.1,43.5,334,43.5z"/>
	<path d="M359.1,46c-1.4,0-2.5-0.4-3.3-1.2s-1.2-2-1.2-3.5V30.1h-2.2c-0.2,0-0.4-0.1-0.5-0.2c-0.1-0.1-0.2-0.3-0.2-0.5v-1.3l3-0.4
		l0.7-5.6c0-0.2,0.1-0.3,0.2-0.4c0.1-0.1,0.3-0.2,0.5-0.2h1.6v6.2h5.2V30h-5.2v11c0,0.8,0.2,1.3,0.6,1.7c0.4,0.4,0.9,0.6,1.4,0.6
		c0.3,0,0.6,0,0.9-0.1c0.2-0.1,0.5-0.2,0.6-0.3c0.2-0.1,0.3-0.2,0.5-0.3c0.1-0.1,0.2-0.1,0.3-0.1c0.2,0,0.3,0.1,0.4,0.3l0.9,1.5
		c-0.6,0.5-1.2,0.9-2,1.2C360.7,45.9,359.9,46,359.1,46z"/>
	<path d="M374.4,27.7c1.3,0,2.5,0.2,3.6,0.6s2,1,2.7,1.8c0.8,0.8,1.3,1.8,1.7,2.9c0.4,1.1,0.6,2.4,0.6,3.8c0,1.4-0.2,2.7-0.6,3.8
		c-0.4,1.1-1,2.1-1.7,2.9c-0.8,0.8-1.7,1.4-2.7,1.8c-1.1,0.4-2.3,0.6-3.6,0.6s-2.5-0.2-3.6-0.6c-1.1-0.4-2-1-2.7-1.8
		c-0.8-0.8-1.3-1.8-1.7-2.9c-0.4-1.1-0.6-2.4-0.6-3.8c0-1.4,0.2-2.6,0.6-3.8c0.4-1.1,1-2.1,1.7-2.9c0.8-0.8,1.7-1.4,2.7-1.8
		C371.8,28,373,27.7,374.4,27.7z M374.4,43.5c1.8,0,3.1-0.6,4-1.7c0.9-1.2,1.3-2.8,1.3-4.9c0-2.1-0.4-3.7-1.3-4.9
		c-0.9-1.2-2.2-1.8-4-1.8c-0.9,0-1.7,0.2-2.4,0.5s-1.2,0.7-1.7,1.3s-0.8,1.3-1,2.1s-0.3,1.8-0.3,2.8s0.1,2,0.3,2.8s0.6,1.5,1,2.1
		s1,1,1.7,1.3C372.7,43.4,373.4,43.5,374.4,43.5z"/>
	<path d="M399.5,46c-1.4,0-2.5-0.4-3.3-1.2s-1.2-2-1.2-3.5V30.1h-2.2c-0.2,0-0.4-0.1-0.5-0.2c-0.1-0.1-0.2-0.3-0.2-0.5v-1.3l3-0.4
		l0.7-5.6c0-0.2,0.1-0.3,0.2-0.4c0.1-0.1,0.3-0.2,0.5-0.2h1.6v6.2h5.2V30h-5.2v11c0,0.8,0.2,1.3,0.6,1.7c0.4,0.4,0.9,0.6,1.4,0.6
		c0.3,0,0.6,0,0.9-0.1c0.2-0.1,0.5-0.2,0.6-0.3c0.2-0.1,0.3-0.2,0.5-0.3c0.1-0.1,0.2-0.1,0.3-0.1c0.2,0,0.3,0.1,0.4,0.3l0.9,1.5
		c-0.6,0.5-1.2,0.9-2,1.2C401.1,45.9,400.3,46,399.5,46z"/>
	<path d="M407.4,46V19.6h3.2v11.1c0.8-0.9,1.6-1.6,2.6-2.2s2-0.8,3.3-0.8c1,0,1.9,0.2,2.6,0.5s1.4,0.8,1.9,1.4
		c0.5,0.6,0.9,1.3,1.2,2.2c0.3,0.8,0.4,1.8,0.4,2.8V46h-3.2V34.6c0-1.4-0.3-2.4-0.9-3.2c-0.6-0.7-1.6-1.1-2.9-1.1
		c-0.9,0-1.8,0.2-2.7,0.7s-1.6,1.1-2.3,2v13H407.4z"/>
	<path d="M434.6,27.7c1.1,0,2.1,0.2,3,0.5s1.7,0.8,2.4,1.5s1.2,1.5,1.6,2.4s0.6,2.1,0.6,3.3c0,0.5-0.1,0.8-0.2,1
		c-0.1,0.2-0.3,0.2-0.6,0.2h-12.1c0,1.2,0.2,2.2,0.5,3c0.3,0.9,0.7,1.6,1.2,2.1c0.5,0.6,1.1,1,1.8,1.3s1.5,0.4,2.3,0.4
		s1.5-0.1,2.1-0.3s1.1-0.4,1.5-0.6c0.4-0.2,0.8-0.4,1.1-0.6c0.3-0.2,0.5-0.3,0.7-0.3c0.3,0,0.5,0.1,0.6,0.3l0.9,1.2
		c-0.4,0.5-0.9,0.9-1.4,1.3c-0.6,0.4-1.1,0.6-1.8,0.9c-0.6,0.2-1.3,0.4-2,0.5s-1.3,0.2-2,0.2c-1.3,0-2.4-0.2-3.5-0.6s-2-1-2.8-1.8
		s-1.4-1.8-1.8-3c-0.4-1.2-0.6-2.5-0.6-4.1c0-1.2,0.2-2.4,0.6-3.5c0.4-1.1,1-2,1.7-2.8s1.6-1.4,2.7-1.9
		C432.1,28,433.3,27.7,434.6,27.7z M434.7,30.1c-1.5,0-2.8,0.4-3.7,1.2s-1.4,1.9-1.7,3.3h9.9c0-0.7-0.1-1.3-0.3-1.8
		c-0.2-0.6-0.5-1-0.9-1.4s-0.9-0.7-1.4-0.9S435.4,30.1,434.7,30.1z"/>
	<path d="M453.2,52.2V27.8h1.9c0.5,0,0.7,0.3,0.9,0.8l0.3,2.5c0.8-1,1.7-1.8,2.7-2.3c1-0.6,2.2-0.9,3.5-0.9c1,0,2,0.2,2.8,0.6
		c0.9,0.4,1.6,1,2.2,1.7c0.6,0.8,1.1,1.7,1.4,2.8c0.3,1.1,0.5,2.4,0.5,3.9c0,1.3-0.2,2.5-0.5,3.6c-0.4,1.1-0.9,2.1-1.5,2.9
		c-0.7,0.8-1.5,1.5-2.5,1.9c-1,0.5-2.1,0.7-3.3,0.7c-1.1,0-2.1-0.2-2.9-0.6c-0.8-0.4-1.5-0.9-2.1-1.6v8.3L453.2,52.2L453.2,52.2z
		 M461.3,30.3c-1,0-2,0.2-2.7,0.7c-0.8,0.5-1.5,1.1-2.2,2v8.4c0.6,0.8,1.2,1.3,1.9,1.6s1.5,0.5,2.3,0.5c1.7,0,3-0.6,3.9-1.7
		c0.9-1.2,1.4-2.8,1.4-5c0-1.1-0.1-2.1-0.3-2.9c-0.2-0.8-0.5-1.5-0.9-2s-0.9-0.9-1.5-1.1C462.7,30.5,462,30.3,461.3,30.3z"/>
	<path d="M473.1,46V27.8h1.8c0.3,0,0.6,0.3,0.7,1c0.1,0.6,0.2,1.8,0.3,3.3l0.2,13.9c0.6-5.7,1.4-10.2,2.3-13.4s2-4.8,3.2-4.8
		c0.5,0,1,0,1.4,0.1s0.8,0.2,1.1,0.3l-0.4,15c-0.1,1.9-0.3,2.8-0.6,2.8c-0.2,0-0.4-2.5-0.8-7.6c-0.3-5-0.8-7.6-1.5-7.6
		c-1.1,0-2,1.3-2.8,3.9c-0.8,2.6-1.4,6.3-1.9,11.2L473.1,46L473.1,46z"/>
	<path d="M494.8,27.7c1.1,0,2.1,0.2,3,0.5s1.7,0.8,2.4,1.5s1.2,1.5,1.6,2.4s0.6,2.1,0.6,3.3c0,0.5-0.1,0.8-0.2,1s-0.3,0.2-0.6,0.2
		h-12.1c0,1.2,0.2,2.2,0.5,3s0.7,1.6,1.2,2.1c0.5,0.6,1.1,1,1.8,1.3s1.5,0.4,2.3,0.4s1.5-0.1,2.1-0.3s1.1-0.4,1.5-0.6
		c0.4-0.2,0.8-0.4,1.1-0.6s0.5-0.3,0.7-0.3c0.3,0,0.5,0.1,0.6,0.3l0.9,1.2c-0.4,0.5-0.9,0.9-1.4,1.3c-0.6,0.4-1.1,0.6-1.8,0.9
		c-0.6,0.2-1.3,0.4-2,0.5s-1.3,0.2-2,0.2c-1.3,0-2.4-0.2-3.5-0.6c-1.1-0.4-2-1-2.8-1.8s-1.4-1.8-1.8-3c-0.4-1.2-0.6-2.5-0.6-4.1
		c0-1.2,0.2-2.4,0.6-3.5s1-2,1.7-2.8s1.6-1.4,2.7-1.9C492.3,28,493.5,27.7,494.8,27.7z M494.9,30.1c-1.5,0-2.8,0.4-3.7,1.2
		s-1.4,1.9-1.7,3.3h9.9c0-0.7-0.1-1.3-0.3-1.8c-0.2-0.6-0.5-1-0.9-1.4s-0.9-0.7-1.4-0.9C496.2,30.2,495.6,30.1,494.9,30.1z"/>
	<path d="M503.7,27.8h2.6c0.3,0,0.5,0.1,0.6,0.2c0.2,0.1,0.3,0.3,0.4,0.5l4.6,11.7c0.2,0.4,0.3,0.9,0.4,1.3c0.1,0.4,0.2,0.9,0.3,1.3
		c0.1-0.4,0.2-0.8,0.3-1.3c0.1-0.4,0.2-0.9,0.4-1.3l4.7-11.7c0.1-0.2,0.2-0.4,0.4-0.5s0.4-0.2,0.6-0.2h2.5L514,46h-2.9L503.7,27.8z"
		/>
	<path d="M528.7,21.9c0,0.3-0.1,0.6-0.2,0.9s-0.3,0.5-0.5,0.7s-0.5,0.4-0.7,0.5c-0.3,0.1-0.6,0.2-0.9,0.2s-0.6-0.1-0.9-0.2
		s-0.5-0.3-0.7-0.5s-0.4-0.4-0.5-0.7c-0.1-0.3-0.2-0.6-0.2-0.9s0.1-0.6,0.2-0.9s0.3-0.5,0.5-0.7s0.5-0.4,0.7-0.5
		c0.3-0.1,0.6-0.2,0.9-0.2s0.6,0.1,0.9,0.2s0.5,0.3,0.7,0.5s0.4,0.5,0.5,0.7C528.6,21.3,528.7,21.6,528.7,21.9z M528,27.8V46h-3.2
		V27.8H528z"/>
	<path d="M541,27.7c1.3,0,2.5,0.2,3.6,0.6s2,1,2.7,1.8c0.8,0.8,1.3,1.8,1.7,2.9c0.4,1.1,0.6,2.4,0.6,3.8c0,1.4-0.2,2.7-0.6,3.8
		s-1,2.1-1.7,2.9c-0.8,0.8-1.7,1.4-2.7,1.8c-1.1,0.4-2.3,0.6-3.6,0.6s-2.5-0.2-3.6-0.6c-1.1-0.4-2-1-2.7-1.8
		c-0.8-0.8-1.3-1.8-1.7-2.9c-0.4-1.1-0.6-2.4-0.6-3.8c0-1.4,0.2-2.6,0.6-3.8c0.4-1.1,1-2.1,1.7-2.9c0.8-0.8,1.7-1.4,2.7-1.8
		C538.5,28,539.7,27.7,541,27.7z M541,43.5c1.8,0,3.1-0.6,4-1.7c0.9-1.2,1.3-2.8,1.3-4.9c0-2.1-0.4-3.7-1.3-4.9s-2.2-1.8-4-1.8
		c-0.9,0-1.7,0.2-2.4,0.5c-0.7,0.3-1.2,0.7-1.7,1.3s-0.8,1.3-1,2.1s-0.3,1.8-0.3,2.8s0.1,2,0.3,2.8c0.2,0.8,0.6,1.5,1,2.1
		c0.5,0.6,1,1,1.7,1.3C539.3,43.4,540.1,43.5,541,43.5z"/>
	<path d="M556.4,27.8v11.4c0,1.4,0.3,2.4,1,3.1c0.6,0.7,1.6,1.1,2.9,1.1c0.9,0,1.8-0.2,2.6-0.6s1.6-1,2.3-1.8V27.8h3.2V46h-1.9
		c-0.5,0-0.7-0.2-0.9-0.7l-0.3-2.2c-0.8,0.9-1.7,1.6-2.7,2.1s-2.1,0.8-3.4,0.8c-1,0-1.9-0.2-2.6-0.5c-0.8-0.3-1.4-0.8-1.9-1.4
		c-0.5-0.6-0.9-1.3-1.2-2.1c-0.3-0.8-0.4-1.8-0.4-2.8V27.8H556.4z"/>
	<path d="M584.1,31c-0.1,0.3-0.4,0.4-0.7,0.4c-0.2,0-0.4-0.1-0.6-0.2c-0.2-0.1-0.5-0.3-0.8-0.4s-0.7-0.3-1.2-0.4
		c-0.5-0.1-1-0.2-1.6-0.2c-0.5,0-1,0.1-1.5,0.2c-0.4,0.1-0.8,0.3-1.1,0.5s-0.5,0.5-0.7,0.8s-0.2,0.6-0.2,1c0,0.5,0.1,0.8,0.4,1.1
		s0.6,0.6,1.1,0.8c0.4,0.2,0.9,0.4,1.5,0.6c0.6,0.2,1.1,0.3,1.7,0.5s1.2,0.4,1.7,0.6c0.6,0.2,1.1,0.5,1.5,0.9
		c0.4,0.3,0.8,0.8,1.1,1.3c0.3,0.5,0.4,1.1,0.4,1.8c0,0.8-0.2,1.6-0.5,2.3s-0.7,1.3-1.3,1.8c-0.6,0.5-1.3,0.9-2.2,1.2
		c-0.9,0.3-1.8,0.4-3,0.4c-1.3,0-2.4-0.2-3.5-0.6s-1.9-0.9-2.6-1.6l0.8-1.2c0.1-0.2,0.2-0.3,0.3-0.3s0.3-0.1,0.5-0.1
		s0.4,0.1,0.7,0.2c0.2,0.2,0.5,0.3,0.9,0.5s0.8,0.4,1.2,0.5c0.5,0.2,1.1,0.2,1.8,0.2c0.6,0,1.2-0.1,1.6-0.2s0.9-0.4,1.2-0.6
		c0.3-0.3,0.5-0.6,0.7-0.9c0.1-0.3,0.2-0.7,0.2-1.1c0-0.5-0.1-0.9-0.4-1.2s-0.6-0.6-1.1-0.8c-0.4-0.2-1-0.4-1.5-0.6
		s-1.2-0.3-1.7-0.5c-0.6-0.2-1.2-0.4-1.7-0.6c-0.6-0.2-1.1-0.5-1.5-0.9s-0.8-0.8-1.1-1.3c-0.3-0.5-0.4-1.2-0.4-1.9s0.1-1.3,0.4-1.9
		c0.3-0.6,0.7-1.2,1.3-1.6s1.2-0.8,2-1.1c0.8-0.3,1.7-0.4,2.8-0.4c1.2,0,2.3,0.2,3.2,0.6c1,0.4,1.8,0.9,2.5,1.6L584.1,31z"/>
	<path d="M606.7,31c-0.1,0.3-0.4,0.4-0.7,0.4c-0.2,0-0.4-0.1-0.6-0.2c-0.2-0.1-0.5-0.3-0.8-0.4s-0.7-0.3-1.2-0.4
		c-0.5-0.1-1-0.2-1.6-0.2c-0.5,0-1,0.1-1.5,0.2c-0.4,0.1-0.8,0.3-1.1,0.5s-0.5,0.5-0.7,0.8s-0.2,0.6-0.2,1c0,0.5,0.1,0.8,0.4,1.1
		s0.6,0.6,1.1,0.8c0.4,0.2,0.9,0.4,1.5,0.6c0.6,0.2,1.1,0.3,1.7,0.5s1.2,0.4,1.7,0.6c0.6,0.2,1.1,0.5,1.5,0.9
		c0.4,0.3,0.8,0.8,1.1,1.3c0.3,0.5,0.4,1.1,0.4,1.8c0,0.8-0.2,1.6-0.5,2.3s-0.7,1.3-1.3,1.8c-0.6,0.5-1.3,0.9-2.2,1.2
		c-0.9,0.3-1.8,0.4-3,0.4c-1.3,0-2.4-0.2-3.5-0.6s-1.9-0.9-2.6-1.6l0.8-1.2c0.1-0.2,0.2-0.3,0.3-0.3s0.3-0.1,0.5-0.1
		s0.4,0.1,0.7,0.2c0.2,0.2,0.5,0.3,0.9,0.5s0.8,0.4,1.2,0.5c0.5,0.2,1.1,0.2,1.8,0.2c0.6,0,1.2-0.1,1.6-0.2s0.9-0.4,1.2-0.6
		c0.3-0.3,0.5-0.6,0.7-0.9c0.1-0.3,0.2-0.7,0.2-1.1c0-0.5-0.1-0.9-0.4-1.2s-0.6-0.6-1.1-0.8c-0.4-0.2-1-0.4-1.5-0.6
		s-1.2-0.3-1.7-0.5c-0.6-0.2-1.2-0.4-1.7-0.6c-0.6-0.2-1.1-0.5-1.5-0.9s-0.8-0.8-1.1-1.3c-0.3-0.5-0.4-1.2-0.4-1.9s0.1-1.3,0.4-1.9
		c0.3-0.6,0.7-1.2,1.3-1.6s1.2-0.8,2-1.1c0.8-0.3,1.7-0.4,2.8-0.4c1.2,0,2.3,0.2,3.2,0.6c1,0.4,1.8,0.9,2.5,1.6L606.7,31z"/>
	<path d="M615.4,19.6V46h-3.2V19.6H615.4z"/>
	<path d="M625.3,21.9c0,0.3-0.1,0.6-0.2,0.9s-0.3,0.5-0.5,0.7s-0.5,0.4-0.7,0.5c-0.3,0.1-0.6,0.2-0.9,0.2s-0.6-0.1-0.9-0.2
		s-0.5-0.3-0.7-0.5s-0.4-0.4-0.5-0.7c-0.1-0.3-0.2-0.6-0.2-0.9s0.1-0.6,0.2-0.9s0.3-0.5,0.5-0.7s0.5-0.4,0.7-0.5
		c0.3-0.1,0.6-0.2,0.9-0.2s0.6,0.1,0.9,0.2s0.5,0.3,0.7,0.5s0.4,0.5,0.5,0.7C625.3,21.3,625.3,21.6,625.3,21.9z M624.6,27.8V46h-3.2
		V27.8H624.6z"/>
	<path d="M643.1,46c-0.5,0-0.7-0.2-0.9-0.7l-0.3-2.4c-0.8,0.9-1.7,1.7-2.7,2.3S637,46,635.8,46c-1,0-2-0.2-2.8-0.6
		c-0.9-0.4-1.6-1-2.2-1.7c-0.6-0.8-1.1-1.7-1.4-2.8s-0.5-2.4-0.5-3.9c0-1.3,0.2-2.5,0.5-3.6s0.9-2.1,1.6-2.9
		c0.7-0.8,1.5-1.5,2.5-1.9c1-0.5,2.1-0.7,3.3-0.7c1.1,0,2.1,0.2,2.9,0.6s1.5,0.9,2.1,1.6V19.6h3.2V46H643.1z M636.9,43.4
		c1,0,2-0.2,2.7-0.7s1.5-1.1,2.2-1.9v-8.4c-0.6-0.8-1.2-1.3-1.9-1.7c-0.7-0.3-1.5-0.5-2.3-0.5c-1.7,0-3,0.6-3.9,1.7s-1.4,2.8-1.4,5
		c0,1.1,0.1,2.1,0.3,2.9s0.5,1.5,0.9,2s0.9,0.9,1.5,1.1C635.5,43.3,636.2,43.4,636.9,43.4z"/>
	<path d="M657.6,27.7c1.1,0,2.1,0.2,3,0.5s1.7,0.8,2.4,1.5c0.7,0.7,1.2,1.5,1.6,2.4s0.6,2.1,0.6,3.3c0,0.5-0.1,0.8-0.2,1
		s-0.3,0.2-0.6,0.2h-12.1c0,1.2,0.2,2.2,0.5,3s0.7,1.6,1.2,2.1c0.5,0.6,1.1,1,1.8,1.3c0.7,0.3,1.5,0.4,2.3,0.4s1.5-0.1,2.1-0.3
		s1.1-0.4,1.5-0.6c0.4-0.2,0.8-0.4,1.1-0.6s0.5-0.3,0.7-0.3c0.3,0,0.5,0.1,0.6,0.3l0.9,1.2c-0.4,0.5-0.9,0.9-1.4,1.3
		c-0.6,0.4-1.1,0.6-1.8,0.9c-0.6,0.2-1.3,0.4-2,0.5s-1.3,0.2-2,0.2c-1.3,0-2.4-0.2-3.5-0.6c-1.1-0.4-2-1-2.8-1.8s-1.4-1.8-1.8-3
		s-0.6-2.5-0.6-4.1c0-1.2,0.2-2.4,0.6-3.5s1-2,1.7-2.8s1.6-1.4,2.7-1.9C655.1,28,656.3,27.7,657.6,27.7z M657.7,30.1
		c-1.5,0-2.8,0.4-3.7,1.2c-0.9,0.8-1.4,1.9-1.7,3.3h9.9c0-0.7-0.1-1.3-0.3-1.8c-0.2-0.6-0.5-1-0.9-1.4s-0.9-0.7-1.4-0.9
		C659.1,30.2,658.4,30.1,657.7,30.1z"/>
</g>
<g>
	<path d="M257.4,597.2v2.9h-8.3V623h-3.5v-22.9h-8.4v-2.9H257.4z"/>
	<path d="M269.5,623h-1.4c-0.3,0-0.6-0.1-0.8-0.2s-0.3-0.3-0.4-0.7l-0.4-1.9c-0.5,0.4-0.9,0.8-1.4,1.2c-0.5,0.3-0.9,0.6-1.4,0.9
		c-0.5,0.2-1,0.4-1.6,0.5s-1.2,0.2-1.9,0.2s-1.4-0.1-2-0.3c-0.6-0.2-1.2-0.5-1.6-0.9s-0.8-0.9-1.1-1.5s-0.4-1.3-0.4-2.2
		c0-0.7,0.2-1.4,0.6-2.1c0.4-0.7,1-1.3,1.9-1.8s2-0.9,3.5-1.3s3.2-0.5,5.2-0.5v-1.3c0-1.3-0.3-2.3-0.9-2.9c-0.6-0.7-1.5-1-2.7-1
		c-0.8,0-1.4,0.1-2,0.3c-0.5,0.2-1,0.4-1.4,0.6s-0.7,0.4-1,0.6s-0.6,0.3-0.8,0.3s-0.4-0.1-0.6-0.2s-0.3-0.2-0.4-0.4l-0.6-0.9
		c1-1,2.1-1.7,3.3-2.2s2.5-0.7,3.9-0.7c1,0,1.9,0.2,2.7,0.5s1.5,0.8,2,1.4s0.9,1.3,1.2,2.1c0.3,0.8,0.4,1.8,0.4,2.8V623H269.5z
		 M261.2,620.8c0.6,0,1.1-0.1,1.5-0.2c0.5-0.1,0.9-0.3,1.3-0.5c0.4-0.2,0.8-0.5,1.2-0.8s0.7-0.6,1.1-1v-3.8c-1.5,0-2.7,0.1-3.8,0.3
		s-1.9,0.4-2.5,0.7c-0.6,0.3-1.1,0.7-1.4,1.1s-0.4,0.9-0.4,1.4s0.1,0.9,0.2,1.2c0.2,0.3,0.4,0.6,0.6,0.9c0.3,0.2,0.6,0.4,0.9,0.5
		C260.3,620.7,260.7,620.8,261.2,620.8z"/>
	<path d="M274.3,629.2v-24.4h1.9c0.5,0,0.7,0.3,0.9,0.8l0.3,2.5c0.8-1,1.7-1.8,2.7-2.3c1-0.6,2.2-0.9,3.5-0.9c1,0,2,0.2,2.8,0.6
		s1.6,1,2.2,1.7c0.6,0.8,1.1,1.7,1.4,2.8c0.3,1.1,0.5,2.4,0.5,3.9c0,1.3-0.2,2.5-0.5,3.6c-0.4,1.1-0.9,2.1-1.5,2.9
		c-0.7,0.8-1.5,1.5-2.5,1.9c-1,0.5-2.1,0.7-3.3,0.7c-1.1,0-2.1-0.2-2.9-0.6c-0.8-0.4-1.5-0.9-2.1-1.6v8.3L274.3,629.2L274.3,629.2z
		 M282.5,607.3c-1,0-2,0.2-2.7,0.7c-0.8,0.5-1.5,1.1-2.2,2v8.4c0.6,0.8,1.2,1.3,1.9,1.6s1.5,0.5,2.3,0.5c1.7,0,3-0.6,3.9-1.7
		c0.9-1.2,1.4-2.8,1.4-5c0-1.1-0.1-2.1-0.3-2.9s-0.5-1.5-0.9-2s-0.9-0.9-1.5-1.2S283.2,607.3,282.5,607.3z"/>
	<path d="M306.7,623c-1.4,0-2.5-0.4-3.3-1.2s-1.2-2-1.2-3.5v-11.2H300c-0.2,0-0.4-0.1-0.5-0.2s-0.2-0.3-0.2-0.5v-1.3l3-0.4l0.7-5.6
		c0-0.2,0.1-0.3,0.2-0.4c0.1-0.1,0.3-0.2,0.5-0.2h1.6v6.2h5.2v2.3h-5.2v11c0,0.8,0.2,1.3,0.6,1.7c0.4,0.4,0.9,0.6,1.4,0.6
		c0.3,0,0.6,0,0.9-0.1c0.2-0.1,0.5-0.2,0.6-0.3c0.2-0.1,0.3-0.2,0.5-0.3c0.1-0.1,0.2-0.1,0.3-0.1c0.2,0,0.3,0.1,0.4,0.3l0.9,1.5
		c-0.6,0.5-1.2,0.9-2,1.2C308.3,622.9,307.5,623,306.7,623z"/>
	<path d="M322,604.7c1.3,0,2.5,0.2,3.6,0.6s2,1,2.7,1.8s1.3,1.8,1.7,2.9s0.6,2.4,0.6,3.8s-0.2,2.7-0.6,3.8c-0.4,1.1-1,2.1-1.7,2.9
		s-1.7,1.4-2.7,1.8c-1.1,0.4-2.3,0.6-3.6,0.6s-2.5-0.2-3.6-0.6s-2-1-2.7-1.8c-0.8-0.8-1.3-1.8-1.7-2.9s-0.6-2.4-0.6-3.8
		s0.2-2.6,0.6-3.8c0.4-1.1,1-2.1,1.7-2.9c0.8-0.8,1.7-1.4,2.7-1.8C319.4,605,320.6,604.7,322,604.7z M322,620.5c1.8,0,3.1-0.6,4-1.7
		c0.9-1.2,1.3-2.8,1.3-4.9s-0.4-3.7-1.3-4.9c-0.9-1.2-2.2-1.8-4-1.8c-0.9,0-1.7,0.2-2.4,0.5s-1.2,0.7-1.7,1.3
		c-0.5,0.6-0.8,1.3-1,2.1c-0.2,0.8-0.3,1.8-0.3,2.8s0.1,2,0.3,2.8s0.6,1.5,1,2.1s1,1,1.7,1.3C320.3,620.4,321,620.5,322,620.5z"/>
	<path d="M347.7,604.7c0.8,0,1.5,0.1,2.2,0.3c0.7,0.2,1.3,0.4,1.9,0.8h4.9v1.2c0,0.4-0.3,0.6-0.8,0.7l-2.1,0.3
		c0.4,0.7,0.6,1.5,0.6,2.4c0,0.8-0.2,1.6-0.5,2.3c-0.3,0.7-0.8,1.3-1.4,1.7s-1.3,0.8-2.2,1.1c-0.8,0.3-1.7,0.4-2.7,0.4
		c-0.9,0-1.7-0.1-2.4-0.3c-0.4,0.2-0.7,0.5-0.9,0.8s-0.3,0.6-0.3,0.8c0,0.4,0.2,0.8,0.5,1s0.8,0.4,1.4,0.5c0.6,0.1,1.2,0.1,2,0.1
		c0.7,0,1.5,0,2.2,0s1.5,0.1,2.2,0.2s1.4,0.4,2,0.7c0.6,0.3,1,0.7,1.4,1.3c0.3,0.5,0.5,1.2,0.5,2.1c0,0.8-0.2,1.6-0.6,2.3
		c-0.4,0.7-1,1.4-1.7,2s-1.6,1-2.7,1.4c-1.1,0.3-2.2,0.5-3.6,0.5s-2.5-0.1-3.5-0.4s-1.8-0.6-2.5-1.1s-1.2-1-1.5-1.5
		c-0.3-0.6-0.5-1.2-0.5-1.8c0-0.9,0.3-1.7,0.9-2.3c0.6-0.6,1.4-1.1,2.3-1.5c-0.5-0.2-0.9-0.6-1.2-1s-0.5-0.9-0.5-1.6
		c0-0.3,0-0.5,0.1-0.8s0.2-0.6,0.4-0.8c0.2-0.3,0.4-0.5,0.7-0.8s0.6-0.5,1-0.7c-0.9-0.5-1.6-1.1-2.1-1.9s-0.8-1.7-0.8-2.7
		c0-0.8,0.2-1.6,0.5-2.3c0.3-0.7,0.8-1.3,1.4-1.7c0.6-0.5,1.3-0.8,2.2-1.1C345.7,604.9,346.7,604.7,347.7,604.7z M353.4,623.5
		c0-0.5-0.1-0.8-0.4-1.1s-0.6-0.5-1-0.7s-0.9-0.3-1.5-0.3c-0.6-0.1-1.2-0.1-1.8-0.1s-1.3,0-1.9,0c-0.6,0-1.3-0.1-1.9-0.2
		c-0.7,0.3-1.2,0.7-1.7,1.2c-0.4,0.5-0.6,1-0.6,1.7c0,0.4,0.1,0.8,0.3,1.1c0.2,0.4,0.5,0.7,1,0.9c0.4,0.3,1,0.5,1.6,0.6
		c0.7,0.2,1.4,0.2,2.3,0.2c0.9,0,1.6-0.1,2.3-0.2s1.3-0.4,1.7-0.7c0.5-0.3,0.8-0.6,1.1-1C353.2,624.5,353.4,624,353.4,623.5z
		 M347.7,613.7c0.6,0,1.2-0.1,1.7-0.2s0.9-0.4,1.3-0.7s0.6-0.6,0.8-1.1c0.2-0.4,0.3-0.9,0.3-1.3c0-1-0.3-1.8-1-2.4s-1.7-0.9-3-0.9
		s-2.3,0.3-2.9,0.9c-0.7,0.6-1,1.4-1,2.4c0,0.5,0.1,0.9,0.3,1.3s0.4,0.8,0.8,1.1s0.8,0.5,1.2,0.7C346.5,613.6,347,613.7,347.7,613.7
		z"/>
	<path d="M367.3,604.7c1.3,0,2.5,0.2,3.6,0.6s2,1,2.7,1.8s1.3,1.8,1.7,2.9s0.6,2.4,0.6,3.8s-0.2,2.7-0.6,3.8c-0.4,1.1-1,2.1-1.7,2.9
		s-1.7,1.4-2.7,1.8c-1.1,0.4-2.3,0.6-3.6,0.6s-2.5-0.2-3.6-0.6s-2-1-2.7-1.8c-0.8-0.8-1.3-1.8-1.7-2.9s-0.6-2.4-0.6-3.8
		s0.2-2.6,0.6-3.8c0.4-1.1,1-2.1,1.7-2.9c0.8-0.8,1.7-1.4,2.7-1.8C364.8,605,366,604.7,367.3,604.7z M367.3,620.5
		c1.8,0,3.1-0.6,4-1.7c0.9-1.2,1.3-2.8,1.3-4.9s-0.4-3.7-1.3-4.9c-0.9-1.2-2.2-1.8-4-1.8c-0.9,0-1.7,0.2-2.4,0.5s-1.2,0.7-1.7,1.3
		c-0.5,0.6-0.8,1.3-1,2.1c-0.2,0.8-0.3,1.8-0.3,2.8s0.1,2,0.3,2.8s0.6,1.5,1,2.1s1,1,1.7,1.3C365.6,620.4,366.4,620.5,367.3,620.5z"
		/>
	<path d="M392.4,623c-1.4,0-2.5-0.4-3.3-1.2s-1.2-2-1.2-3.5v-11.2h-2.2c-0.2,0-0.4-0.1-0.5-0.2s-0.2-0.3-0.2-0.5v-1.3l3-0.4l0.7-5.6
		c0-0.2,0.1-0.3,0.2-0.4c0.1-0.1,0.3-0.2,0.5-0.2h1.6v6.2h5.2v2.3H391v11c0,0.8,0.2,1.3,0.6,1.7c0.4,0.4,0.9,0.6,1.4,0.6
		c0.3,0,0.6,0,0.9-0.1c0.2-0.1,0.5-0.2,0.6-0.3c0.2-0.1,0.3-0.2,0.5-0.3c0.1-0.1,0.2-0.1,0.3-0.1c0.2,0,0.3,0.1,0.4,0.3l0.9,1.5
		c-0.6,0.5-1.2,0.9-2,1.2C394.1,622.9,393.3,623,392.4,623z"/>
	<path d="M407.7,604.7c1.3,0,2.5,0.2,3.6,0.6s2,1,2.7,1.8s1.3,1.8,1.7,2.9s0.6,2.4,0.6,3.8s-0.2,2.7-0.6,3.8c-0.4,1.1-1,2.1-1.7,2.9
		s-1.7,1.4-2.7,1.8c-1.1,0.4-2.3,0.6-3.6,0.6s-2.5-0.2-3.6-0.6s-2-1-2.7-1.8c-0.8-0.8-1.3-1.8-1.7-2.9s-0.6-2.4-0.6-3.8
		s0.2-2.6,0.6-3.8c0.4-1.1,1-2.1,1.7-2.9c0.8-0.8,1.7-1.4,2.7-1.8C405.2,605,406.4,604.7,407.7,604.7z M407.7,620.5
		c1.8,0,3.1-0.6,4-1.7c0.9-1.2,1.3-2.8,1.3-4.9s-0.4-3.7-1.3-4.9c-0.9-1.2-2.2-1.8-4-1.8c-0.9,0-1.7,0.2-2.4,0.5s-1.2,0.7-1.7,1.3
		c-0.5,0.6-0.8,1.3-1,2.1c-0.2,0.8-0.3,1.8-0.3,2.8s0.1,2,0.3,2.8s0.6,1.5,1,2.1s1,1,1.7,1.3C406,620.4,406.8,620.5,407.7,620.5z"/>
	<path d="M432.8,623c-1.4,0-2.5-0.4-3.3-1.2s-1.2-2-1.2-3.5v-11.2h-2.2c-0.2,0-0.4-0.1-0.5-0.2s-0.2-0.3-0.2-0.5v-1.3l3-0.4l0.7-5.6
		c0-0.2,0.1-0.3,0.2-0.4c0.1-0.1,0.3-0.2,0.5-0.2h1.6v6.2h5.2v2.3h-5.2v11c0,0.8,0.2,1.3,0.6,1.7c0.4,0.4,0.9,0.6,1.4,0.6
		c0.3,0,0.6,0,0.9-0.1c0.2-0.1,0.5-0.2,0.6-0.3c0.2-0.1,0.3-0.2,0.5-0.3c0.1-0.1,0.2-0.1,0.3-0.1c0.2,0,0.3,0.1,0.5,0.3l0.9,1.5
		c-0.6,0.5-1.2,0.9-2,1.2C434.5,622.9,433.7,623,432.8,623z"/>
	<path d="M440.7,623v-26.4h3.2v11.1c0.8-0.9,1.6-1.6,2.6-2.2c0.9-0.5,2-0.8,3.3-0.8c1,0,1.9,0.2,2.6,0.5c0.8,0.3,1.4,0.8,1.9,1.4
		s0.9,1.3,1.2,2.2c0.3,0.8,0.4,1.8,0.4,2.8V623h-3.2v-11.4c0-1.4-0.3-2.4-0.9-3.2c-0.6-0.7-1.6-1.1-2.9-1.1c-0.9,0-1.8,0.2-2.7,0.7
		c-0.8,0.5-1.6,1.1-2.3,2v13H440.7z"/>
	<path d="M468,604.7c1.1,0,2.1,0.2,3,0.5s1.7,0.8,2.4,1.5s1.2,1.5,1.6,2.4c0.4,1,0.6,2.1,0.6,3.3c0,0.5-0.1,0.8-0.2,1
		c-0.1,0.2-0.3,0.2-0.6,0.2h-12.1c0,1.2,0.2,2.2,0.5,3c0.3,0.9,0.7,1.6,1.2,2.1s1.1,1,1.8,1.3s1.5,0.4,2.3,0.4s1.5-0.1,2.1-0.3
		c0.6-0.2,1.1-0.4,1.5-0.6s0.8-0.4,1.1-0.6s0.5-0.3,0.7-0.3c0.3,0,0.5,0.1,0.6,0.3l0.9,1.2c-0.4,0.5-0.9,0.9-1.4,1.3
		c-0.6,0.4-1.1,0.6-1.8,0.9s-1.3,0.4-2,0.5s-1.3,0.2-2,0.2c-1.3,0-2.4-0.2-3.5-0.6s-2-1-2.8-1.8s-1.4-1.8-1.8-3s-0.6-2.5-0.6-4.1
		c0-1.2,0.2-2.4,0.6-3.5c0.4-1.1,1-2,1.7-2.8s1.6-1.4,2.7-1.9C465.4,605,466.6,604.7,468,604.7z M468,607.1c-1.5,0-2.8,0.4-3.7,1.2
		c-0.9,0.8-1.4,1.9-1.7,3.3h9.9c0-0.7-0.1-1.3-0.3-1.8c-0.2-0.6-0.5-1-0.9-1.4s-0.9-0.7-1.4-0.9S468.8,607.1,468,607.1z"/>
	<path d="M486.6,623v-18.2h1.9c0.5,0,0.7,0.3,0.9,0.8l0.3,2.3c0.8-0.9,1.7-1.7,2.7-2.3c1-0.6,2.1-0.9,3.4-0.9c1,0,1.9,0.2,2.6,0.5
		c0.8,0.3,1.4,0.8,1.9,1.4s0.9,1.3,1.2,2.2c0.3,0.8,0.4,1.8,0.4,2.8V623h-3.2v-11.4c0-1.4-0.3-2.4-0.9-3.2c-0.6-0.7-1.6-1.1-2.9-1.1
		c-0.9,0-1.8,0.2-2.7,0.7c-0.8,0.5-1.6,1.1-2.3,2v13L486.6,623L486.6,623z"/>
	<path d="M513.8,604.7c1.1,0,2.1,0.2,3,0.5s1.7,0.8,2.4,1.5s1.2,1.5,1.6,2.4c0.4,1,0.6,2.1,0.6,3.3c0,0.5-0.1,0.8-0.2,1
		s-0.3,0.2-0.6,0.2h-12.1c0,1.2,0.2,2.2,0.5,3s0.7,1.6,1.2,2.1s1.1,1,1.8,1.3c0.7,0.3,1.5,0.4,2.3,0.4s1.5-0.1,2.1-0.3
		c0.6-0.2,1.1-0.4,1.5-0.6s0.8-0.4,1.1-0.6c0.3-0.2,0.5-0.3,0.7-0.3c0.3,0,0.5,0.1,0.6,0.3l0.9,1.2c-0.4,0.5-0.9,0.9-1.4,1.3
		s-1.1,0.6-1.8,0.9c-0.6,0.2-1.3,0.4-2,0.5s-1.3,0.2-2,0.2c-1.3,0-2.4-0.2-3.5-0.6s-2-1-2.8-1.8s-1.4-1.8-1.8-3s-0.6-2.5-0.6-4.1
		c0-1.2,0.2-2.4,0.6-3.5s1-2,1.7-2.8s1.6-1.4,2.7-1.9C511.3,605,512.5,604.7,513.8,604.7z M513.9,607.1c-1.5,0-2.8,0.4-3.7,1.2
		c-0.9,0.8-1.4,1.9-1.7,3.3h9.9c0-0.7-0.1-1.3-0.3-1.8s-0.5-1-0.9-1.4s-0.9-0.7-1.4-0.9C515.2,607.2,514.6,607.1,513.9,607.1z"/>
	<path d="M528.6,613.7l-6.1-8.9h3.1c0.3,0,0.5,0,0.6,0.1s0.2,0.2,0.3,0.4l4.5,6.8c0.1-0.3,0.3-0.7,0.5-1l3.9-5.8
		c0.1-0.2,0.2-0.3,0.4-0.4c0.1-0.1,0.3-0.2,0.5-0.2h3l-6.1,8.7l6.4,9.5h-3.1c-0.3,0-0.5-0.1-0.6-0.2c-0.2-0.1-0.3-0.3-0.4-0.5
		l-4.6-7.1c-0.1,0.3-0.2,0.7-0.4,0.9l-4.2,6.2c-0.1,0.2-0.2,0.3-0.4,0.5c-0.1,0.1-0.3,0.2-0.6,0.2h-2.9L528.6,613.7z"/>
	<path d="M548,623c-1.4,0-2.5-0.4-3.3-1.2s-1.2-2-1.2-3.5v-11.2h-2.2c-0.2,0-0.4-0.1-0.5-0.2s-0.2-0.3-0.2-0.5v-1.3l3-0.4l0.7-5.6
		c0-0.2,0.1-0.3,0.2-0.4s0.3-0.2,0.5-0.2h1.6v6.2h5.2v2.3h-5.2v11c0,0.8,0.2,1.3,0.6,1.7s0.9,0.6,1.4,0.6c0.3,0,0.6,0,0.9-0.1
		c0.2-0.1,0.5-0.2,0.6-0.3c0.2-0.1,0.3-0.2,0.5-0.3c0.1-0.1,0.2-0.1,0.3-0.1c0.2,0,0.3,0.1,0.5,0.3l0.9,1.5c-0.6,0.5-1.2,0.9-2,1.2
		C549.7,622.9,548.8,623,548,623z"/>
	<path d="M573.3,608c-0.1,0.3-0.4,0.4-0.7,0.4c-0.2,0-0.4-0.1-0.6-0.2s-0.5-0.3-0.8-0.4c-0.3-0.2-0.7-0.3-1.2-0.4s-1-0.2-1.6-0.2
		c-0.5,0-1,0.1-1.5,0.2c-0.4,0.1-0.8,0.3-1.1,0.5s-0.5,0.5-0.7,0.8s-0.2,0.6-0.2,1c0,0.5,0.1,0.8,0.4,1.1c0.3,0.3,0.6,0.6,1.1,0.8
		c0.4,0.2,0.9,0.4,1.5,0.6s1.1,0.3,1.7,0.5s1.2,0.4,1.7,0.6c0.6,0.2,1.1,0.5,1.5,0.9c0.4,0.3,0.8,0.8,1.1,1.3
		c0.3,0.5,0.4,1.1,0.4,1.8c0,0.8-0.2,1.6-0.5,2.3c-0.3,0.7-0.7,1.3-1.3,1.8c-0.6,0.5-1.3,0.9-2.2,1.2c-0.9,0.3-1.8,0.4-3,0.4
		c-1.3,0-2.4-0.2-3.5-0.6s-1.9-0.9-2.6-1.6l0.8-1.2c0.1-0.2,0.2-0.3,0.3-0.3c0.1-0.1,0.3-0.1,0.5-0.1s0.4,0.1,0.7,0.2
		c0.2,0.2,0.5,0.3,0.9,0.5c0.3,0.2,0.8,0.4,1.2,0.5s1.1,0.2,1.8,0.2c0.6,0,1.2-0.1,1.6-0.2c0.5-0.2,0.9-0.4,1.2-0.6
		c0.3-0.3,0.5-0.6,0.7-0.9c0.1-0.3,0.2-0.7,0.2-1.1c0-0.5-0.1-0.9-0.4-1.2c-0.3-0.3-0.6-0.6-1.1-0.8c-0.4-0.2-1-0.4-1.5-0.6
		s-1.2-0.3-1.7-0.5c-0.6-0.2-1.2-0.4-1.7-0.6c-0.6-0.2-1.1-0.5-1.5-0.9s-0.8-0.8-1.1-1.3c-0.3-0.5-0.4-1.2-0.4-1.9
		c0-0.7,0.1-1.3,0.4-1.9s0.7-1.2,1.3-1.6s1.2-0.8,2-1.1c0.8-0.3,1.7-0.4,2.8-0.4c1.2,0,2.3,0.2,3.2,0.6c1,0.4,1.8,0.9,2.5,1.6
		L573.3,608z"/>
	<path d="M582.1,596.6V623h-3.2v-26.4H582.1z"/>
	<path d="M592,598.9c0,0.3-0.1,0.6-0.2,0.9s-0.3,0.5-0.5,0.7s-0.5,0.4-0.7,0.5c-0.3,0.1-0.6,0.2-0.9,0.2s-0.6-0.1-0.9-0.2
		s-0.5-0.3-0.7-0.5s-0.4-0.5-0.5-0.7c-0.1-0.3-0.2-0.6-0.2-0.9s0.1-0.6,0.2-0.9s0.3-0.5,0.5-0.7s0.5-0.4,0.7-0.5
		c0.3-0.1,0.6-0.2,0.9-0.2s0.6,0.1,0.9,0.2s0.5,0.3,0.7,0.5s0.4,0.5,0.5,0.7C591.9,598.3,592,598.6,592,598.9z M591.3,604.8V623
		h-3.2v-18.2H591.3z"/>
	<path d="M609.8,623c-0.5,0-0.7-0.2-0.9-0.7l-0.3-2.4c-0.8,0.9-1.7,1.7-2.7,2.3s-2.2,0.8-3.4,0.8c-1,0-2-0.2-2.8-0.6
		c-0.9-0.4-1.6-1-2.2-1.7c-0.6-0.8-1.1-1.7-1.4-2.8c-0.3-1.1-0.5-2.4-0.5-3.9c0-1.3,0.2-2.5,0.5-3.6s0.9-2.1,1.6-2.9s1.5-1.5,2.5-2
		s2.1-0.7,3.3-0.7c1.1,0,2.1,0.2,2.9,0.6s1.5,0.9,2.1,1.6v-10.3h3.2v26.4h-1.9V623z M603.5,620.4c1,0,2-0.2,2.7-0.7
		c0.8-0.5,1.5-1.1,2.2-1.9v-8.4c-0.6-0.8-1.2-1.3-1.9-1.7c-0.7-0.3-1.5-0.5-2.3-0.5c-1.7,0-3,0.6-3.9,1.7c-0.9,1.2-1.4,2.8-1.4,5
		c0,1.1,0.1,2.1,0.3,2.9s0.5,1.5,0.9,2s0.9,0.9,1.5,1.1C602.1,620.3,602.8,620.4,603.5,620.4z"/>
	<path d="M624.3,604.7c1.1,0,2.1,0.2,3,0.5s1.7,0.8,2.4,1.5s1.2,1.5,1.6,2.4c0.4,1,0.6,2.1,0.6,3.3c0,0.5-0.1,0.8-0.2,1
		s-0.3,0.2-0.6,0.2H619c0,1.2,0.2,2.2,0.5,3s0.7,1.6,1.2,2.1s1.1,1,1.8,1.3c0.7,0.3,1.5,0.4,2.3,0.4s1.5-0.1,2.1-0.3
		c0.6-0.2,1.1-0.4,1.5-0.6s0.8-0.4,1.1-0.6c0.3-0.2,0.5-0.3,0.7-0.3c0.3,0,0.5,0.1,0.6,0.3l0.9,1.2c-0.4,0.5-0.9,0.9-1.4,1.3
		s-1.1,0.6-1.8,0.9c-0.6,0.2-1.3,0.4-2,0.5s-1.3,0.2-2,0.2c-1.3,0-2.4-0.2-3.5-0.6s-2-1-2.8-1.8s-1.4-1.8-1.8-3s-0.6-2.5-0.6-4.1
		c0-1.2,0.2-2.4,0.6-3.5s1-2,1.7-2.8s1.6-1.4,2.7-1.9C621.8,605,622.9,604.7,624.3,604.7z M624.3,607.1c-1.5,0-2.8,0.4-3.7,1.2
		c-0.9,0.8-1.4,1.9-1.7,3.3h9.9c0-0.7-0.1-1.3-0.3-1.8s-0.5-1-0.9-1.4s-0.9-0.7-1.4-0.9C625.7,607.2,625.1,607.1,624.3,607.1z"/>
</g>
</svg>
